<svg width="80" height="auto" viewBox="0 0 20 11" fill="none" xmlns="http://www.w3.org/2000/svg">
<path d="M14.926 7.383L15.286 7.575L15.767 7.767L16.206 7.919L16.606 8.166L17.028 8.245L17.391 8.416L17.812 8.703L17.906 8.97L17.849 9.218L17.641 9.487L17.373 9.735L17.09 9.952L16.951 10.117L16.836 10.297L17.065 10.232L17.142 10.306L17.512 10.22L17.794 10.271L18.02 10.136L18.191 10.043L18.385 9.755L18.671 9.43L18.902 9.218L19.129 8.97L19.302 8.799L19.339 8.626L19.32 8.454L19.169 8.207L18.958 7.861L18.825 7.48L18.576 7.173L18.479 6.735L18.365 6.37L18.191 5.933L17.966 5.586L17.754 5.282L17.6 4.9L17.429 4.439L17.333 4.018L17.236 3.658L17.065 3.315L16.853 2.95L16.645 2.739L16.358 2.396L16.093 2.127L15.747 1.975L15.308 1.805L14.962 1.593L14.523 1.384L14.006 1.304H13.644L13.165 1.419L12.67 1.517L12.192 1.573L11.735 1.669L11.312 1.688L10.76 1.63L10.433 1.573L10.052 1.517L9.746 1.402L9.401 1.267L9.095 1.134L8.77 1.075L8.502 1L8.237 1.058L7.949 1.134L7.586 1.286L7.242 1.419L6.822 1.554L6.534 1.688L6.211 1.746L5.943 1.805H5.559L5.254 1.834L4.985 1.872L4.807 1.936L4.617 2.001L4.388 1.963L4.208 1.783L3.99 1.657H3.762L3.622 1.759L3.585 1.885L3.508 2.038L3.446 2.23L3.266 2.384L2.998 2.535L2.704 2.752L2.515 2.919L2.323 3.16L2.08 3.465L1.837 3.669L1.506 3.874L1.228 4.052L1 4.218V4.319L1.025 4.433L1.113 4.638L1.214 4.754L1.378 4.828L1.75 4.867L1.609 4.93L1.582 5.058L1.559 5.185L1.687 5.224L1.826 5.212L2.092 5.287L2.335 5.261L2.603 5.224L2.949 5.237L3.367 5.351L3.66 5.467L3.929 5.53L4.235 5.659L4.464 5.669L4.743 5.53L5.151 5.338H5.457L5.559 5.441L5.662 5.517L5.726 5.633V5.759L5.649 6.013L5.418 6.282L5.14 6.702L4.948 7.008L4.72 7.363L4.513 7.721L4.312 8L4.12 8.359L3.943 8.651L3.788 8.842L3.608 9.022L3.394 9.099L3.035 9.201L2.756 9.264L2.528 9.353L2.364 9.479L2.246 9.609L2.169 9.761L2.346 9.772L2.414 9.849L2.629 9.797L2.974 9.836H3.201L3.508 9.825H3.788L4.094 9.813L4.388 9.735L4.667 9.596L4.921 9.303L5.151 9.124L5.457 8.935L5.686 8.78L5.891 8.614L6.196 8.435L6.504 8.231L6.846 7.965L7.292 7.683L7.649 7.48L8.019 7.288L8.284 7.173L8.453 7.16L8.631 7.239L8.948 7.492L9.215 7.709L9.446 7.938L9.495 8.193L9.511 8.474L9.522 8.753L9.434 9.022L9.344 9.189L9.215 9.327L9.076 9.43L8.797 9.531L8.427 9.661L8.183 9.722L8.046 9.864L7.902 10.068L8.057 10.055L8.274 9.976L8.489 10.003L8.631 10.105H8.834H9.102L9.393 10.079L9.624 10.117L9.967 10.068L10.198 9.888L10.454 9.596L10.732 9.353L10.95 9.073L11.103 8.614L11.332 8.13L11.548 7.683L11.726 7.288L11.891 7.211L11.981 7.276L12.071 7.428L12.263 7.683L12.454 7.926L12.566 8.207L12.659 8.551L12.732 8.78L12.783 8.996L12.732 9.137L12.633 9.303L12.364 9.414L11.995 9.479L11.766 9.596L11.613 9.71L11.522 9.825L11.471 9.912L11.664 9.875L11.726 9.952L11.919 9.912L12.173 9.875L12.441 9.912L12.732 9.938H13.051L13.435 9.888H13.588L13.816 9.684L13.931 9.467L14.098 9.201L14.277 8.83L14.363 8.359L14.593 7.965L14.798 7.709L14.926 7.383Z" stroke="#ffffff" stroke-width="0.2" stroke-linejoin="bevel"/>
<path d="M2.95312 3.082L3.01912 3.21L3.02812 3.287L3.11413 3.335L3.18612 3.395L3.27413 3.42L3.30812 3.382L3.43713 3.298L3.48312 3.278L3.38313 3.218L3.26112 3.176L3.13112 3.134L3.00012 3.043" stroke="#ffffff" stroke-width="0.2" stroke-linejoin="bevel"/>
<path d="M5.2168 4.84L5.2398 4.993L5.3178 5.199L5.4568 5.338L5.6618 5.517L5.9288 5.632L6.1568 5.707L6.4138 5.809" stroke="#ffffff" stroke-width="0.2" stroke-linejoin="bevel"/>
<path d="M7.53418 6.47299L7.79018 6.54799L7.99218 6.75099L8.14918 6.85399L8.40218 7.10999" stroke="#ffffff" stroke-width="0.2" stroke-linejoin="bevel"/>
<path d="M11.7661 6.24301L11.9431 6.37001L12.0731 6.49901L12.0211 6.77701L11.8951 7.00601L11.7911 7.23601" stroke="#ffffff" stroke-width="0.2" stroke-linejoin="bevel"/>
<path d="M13.9312 6.16599L14.1612 6.52299L14.3922 6.82899L14.6202 7.08398L14.9262 7.38299" stroke="#ffffff" stroke-width="0.2" stroke-linejoin="bevel"/>
<path d="M4.38818 1.96301L4.45018 2.06301L4.57818 2.24201" stroke="#ffffff" stroke-width="0.2" stroke-linejoin="bevel"/>
</svg>
